<svg width="15" height="15" viewBox="0 0 15 15" fill="none" xmlns="http://www.w3.org/2000/svg">
<path d="M4.99926 5.49926H5.99926M8.99926 9.49926H9.99926M9.99926 4.99926L4.99926 9.99926M6.80026 0.789257L5.67126 1.91626C5.48623 2.10162 5.23516 2.20593 4.97326 2.20626H3.19526C2.93322 2.20626 2.68192 2.31035 2.49664 2.49564C2.31135 2.68092 2.20726 2.93222 2.20726 3.19426V4.97226C2.20693 5.23416 2.10262 5.48523 1.91726 5.67026L0.789257 6.80126C0.604045 6.98653 0.5 7.23778 0.5 7.49976C0.5 7.76173 0.604045 8.01298 0.789257 8.19826L1.91926 9.32726C2.0109 9.41893 2.0836 9.52775 2.13318 9.64751C2.18277 9.76728 2.20828 9.89563 2.20826 10.0253V11.8033C2.20826 12.3493 2.65026 12.7913 3.19626 12.7913H4.97426C5.23626 12.7913 5.48726 12.8953 5.67226 13.0813L6.80226 14.2103C6.98753 14.3955 7.23878 14.4995 7.50076 14.4995C7.76273 14.4995 8.01398 14.3955 8.19926 14.2103L9.32826 13.0803C9.51345 12.8953 9.76449 12.7913 10.0263 12.7913H11.8043C12.0663 12.7913 12.3176 12.6872 12.5029 12.5019C12.6882 12.3166 12.7923 12.0653 12.7923 11.8033V10.0253C12.7923 9.76326 12.8963 9.51226 13.0823 9.32726L14.2113 8.19726C14.3965 8.01198 14.5005 7.76073 14.5005 7.49876C14.5005 7.23678 14.3965 6.98553 14.2113 6.80026L13.0813 5.67126C12.8963 5.48606 12.7923 5.23502 12.7923 4.97326V3.19526C12.7923 2.93322 12.6882 2.68192 12.5029 2.49664C12.3176 2.31135 12.0663 2.20726 11.8043 2.20726H10.0263C9.76435 2.20693 9.51329 2.10262 9.32826 1.91726L8.19726 0.789257C8.01198 0.604045 7.76073 0.5 7.49876 0.5C7.23678 0.5 6.98553 0.604045 6.80026 0.789257V0.789257Z" stroke="#D39171"/>
</svg>
